<svg xmlns="http://www.w3.org/2000/svg" width="340" height="200" viewBox="0 0 340 200">
    <style>* { font-family: 'Segoe UI', Ubuntu, "Helvetica Neue", Sans-Serif }</style>
    <rect x="1" y="1" rx="5" ry="5" height="99%" width="99.41176470588235%" stroke="#1a1b27" stroke-width="1" fill="#1a1b27" stroke-opacity="1" />
    <text x="30" y="40" style="font-size: 22px; fill: #70a5fd;">Hugging Face</text>
    <g transform="translate(30,60)"><g transform="translate(0,0.0)"><path fill="#bf91f3" d="M5.5 3.5a2 2 0 1 0 0 4 2 2 0 0 0 0-4zM2 5.5a3.5 3.5 0 1 1 5.898 2.549 5.507 5.507 0 0 1 3.034 4.084.75.75 0 1 1-1.482.235 4.001 4.001 0 0 0-7.9 0 .75.75 0 0 1-1.482-.236A5.507 5.507 0 0 1 3.102 8.05 3.49 3.49 0 0 1 2 5.5zM11 4a.75.75 0 1 0 0 1.5 1.5 1.5 0 0 1 .666 2.844.75.75 0 0 0-.416.672v.352a.75.75 0 0 0 .574.73c1.2.289 2.162 1.2 2.522 2.372a.75.75 0 1 0 1.434-.44 5.01 5.01 0 0 0-2.56-3.012A3 3 0 0 0 11 4z" /><text x="21" y="14" style="fill: #38bdae; font-size: 14px;">Followers:</text><text x="100" y="14" style="fill: #38bdae; font-size: 14px;">1</text></g><g transform="translate(0,25.2)"><path fill="#bf91f3" d="M8 .25a.75.75 0 0 1 .673.418l1.882 3.815 4.21.612a.75.75 0 0 1 .416 1.279l-3.046 2.97.719 4.192a.75.75 0 0 1-1.088.791L8 12.347l-3.766 1.98a.75.75 0 0 1-1.088-.79l.72-4.194L.818 6.374a.75.75 0 0 1 .416-1.28l4.21-.611L7.327.668A.75.75 0 0 1 8 .25z" /><text x="21" y="14" style="fill: #38bdae; font-size: 14px;">Likes:</text><text x="100" y="14" style="fill: #38bdae; font-size: 14px;">15</text></g><g transform="translate(0,50.4)"><path fill="#bf91f3" d="M1.75 1.5A1.75 1.75 0 0 0 0 3.25v7.5c0 .966.784 1.75 1.75 1.75h4.5v1H4.5a.75.75 0 0 0 0 1.5h7a.75.75 0 0 0 0-1.5H9.75v-1h4.5A1.75 1.75 0 0 0 16 10.75v-7.5A1.75 1.75 0 0 0 14.25 1.5H1.75zm0 1.5h12.5a.25.25 0 0 1 .25.25v7.5a.25.25 0 0 1-.25.25H1.75a.25.25 0 0 1-.25-.25v-7.5A.25.25 0 0 1 1.75 3z" /><text x="21" y="14" style="fill: #38bdae; font-size: 14px;">Models:</text><text x="100" y="14" style="fill: #38bdae; font-size: 14px;">7</text></g><g transform="translate(0,75.6)"><path fill="#bf91f3" d="M2 1.25A1.75 1.75 0 0 0 .25 3v10A1.75 1.75 0 0 0 2 14.75h12A1.75 1.75 0 0 0 15.75 13V3A1.75 1.75 0 0 0 14 1.25H2zm0 1.5h12a.25.25 0 0 1 .25.25v2.25h-13V3A.25.25 0 0 1 2 2.75zm-.75 4h13v2.5h-13v-2.5zm0 4h13V13a.25.25 0 0 1-.25.25H2a.25.25 0 0 1-.25-.25v-2.25z" /><text x="21" y="14" style="fill: #38bdae; font-size: 14px;">Datasets:</text><text x="100" y="14" style="fill: #38bdae; font-size: 14px;">1</text></g><g transform="translate(0,100.8)"><path fill="#bf91f3" d="M1.5 1.5h5v5h-5v-5zm1.5 1.5V5h2V3H3zm6.5-1.5h5v5h-5v-5zM11 3v2h2V3h-2zM1.5 9.5h5v5h-5v-5zM3 11v2h2v-2H3zm6.5-1.5h5v5h-5v-5zM11 11v2h2v-2h-2z" /><text x="21" y="14" style="fill: #38bdae; font-size: 14px;">Spaces:</text><text x="100" y="14" style="fill: #38bdae; font-size: 14px;">1</text></g></g>
    <g transform="translate(220,20) scale(0.08)" data-hugging-face-mark="true"><ns0:path xmlns:ns0="http://www.w3.org/2000/svg" d="M96 511.968c0-117.44 35.392-221.12 103.52-295.072C267.2 143.36 370.176 96 511.968 96c141.76 0 244.736 47.36 312.448 120.896 68.128 73.952 103.52 177.6 103.52 295.04 0 13.472-0.48 26.752-1.408 39.808 10.56 5.728 19.264 14.304 25.184 24.704 13.376 1.6 25.472 7.36 35.008 15.904 3.488-26.24 5.216-53.12 5.216-80.384 0-129.952-39.264-250.272-120.448-338.432C789.888 84.928 668.896 32 512 32 355.04 32 234.016 84.928 152.416 173.536 71.232 261.696 32 382.016 32 511.968c0 27.296 1.728 54.176 5.216 80.416a63.776 63.776 0 0 1 35.072-15.936 64.32 64.32 0 0 1 25.088-24.64A563.808 563.808 0 0 1 96 511.936zM405.376 917.952a152.64 152.64 0 0 1-59.552 51.104c49.824 14.912 105.28 22.88 166.144 22.88 60.864 0 116.32-8 166.208-22.912a152.64 152.64 0 0 1-59.552-51.072 546.24 546.24 0 0 1-106.656 9.984c-38.336 0-73.856-3.456-106.592-9.984z" fill="#bf91f3" p-id="6454" /><ns0:path xmlns:ns0="http://www.w3.org/2000/svg" d="M252.416 426.816a64 64 0 0 0-24.8 74.4 64 64 0 1 1 24.8-74.4zM796.416 501.184a64 64 0 0 0-24.832-74.368 64 64 0 1 1 24.832 74.4zM299.168 301.216c-6.72 7.296-10.24 16.96-11.744 24.896a32 32 0 0 1-62.848-12.224c2.848-14.592 9.92-36.896 27.456-55.968C270.496 237.792 298.112 224 336 224c38.24 0 65.984 14.464 84.352 34.624 17.408 19.104 24.64 41.344 27.2 55.904a32 32 0 0 1-63.072 10.944 49.472 49.472 0 0 0-11.456-23.744C367.04 295.104 356.544 288 336 288c-20.896 0-31.104 6.944-36.832 13.216zM651.2 301.216c-6.72 7.296-10.24 16.96-11.776 24.896a32 32 0 0 1-62.816-12.224c2.816-14.592 9.92-36.896 27.424-55.968C622.496 237.792 650.112 224 688 224c38.272 0 65.984 14.464 84.352 34.624 17.408 19.104 24.64 41.344 27.2 55.904a32 32 0 0 1-63.072 10.944 49.44 49.44 0 0 0-11.456-23.744C719.04 295.104 708.544 288 688 288c-20.896 0-31.072 6.944-36.8 13.216zM268.8 454.4a32 32 0 0 1 44.8 6.4c9.536 12.704 63.744 67.2 198.4 67.2s188.864-54.496 198.4-67.2a32 32 0 1 1 51.2 38.4c-22.464 29.952-96.256 92.8-249.6 92.8s-227.136-62.848-249.6-92.8a32 32 0 0 1 6.4-44.8zM927.68 612.48a32 32 0 0 0-52.768-28.544L754.56 689.28l-2.528-1.28c0-13.216 1.216-25.216 2.304-36 2.88-28.416 4.896-48.416-18.304-60-42.816-21.408-62.464 50.048-75.616 119.776-3.008 15.872-10.24 30.56-18.304 44.544-42.56 73.696-2.112 147.648 29.92 171.68 57.248 42.944 112 32 160 0 29.056-19.36 84.32-58.24 125.664-87.584a35.712 35.712 0 1 0-36.672-60.928l-4.032 2.048 63.52-52.96a32 32 0 0 0-25.024-56.256l9.376-8a32 32 0 0 0-37.12-51.84zM96.32 612.48a32 32 0 0 1 52.768-28.544l120.416 105.344 2.528-1.28c0-13.216-1.216-25.216-2.304-36-2.88-28.416-4.896-48.416 18.304-60 42.816-21.408 62.464 50.048 75.616 119.776 3.008 15.872 10.24 30.56 18.304 44.544 42.56 73.696 2.112 147.648-29.92 171.68-57.28 42.944-112 32-160 0-29.056-19.36-84.32-58.24-125.664-87.584A35.712 35.712 0 1 1 103.04 779.52l4.032 2.048-63.52-52.96a32 32 0 0 1 24.992-56.256l-9.344-8a32 32 0 0 1 37.12-51.84z" fill="#bf91f3" p-id="6455" /></g>
</svg>