<svg xmlns="http://www.w3.org/2000/svg" width="340" height="200" viewBox="0 0 340 200">
    <style>
        * {
            font-family: 'Segoe UI', Ubuntu, "Helvetica Neue", Sans-Serif
        }
    </style>
    <rect x="1" y="1" rx="5" ry="5" height="99%" width="99.41176470588235%" stroke="#1a1b27" stroke-width="1"
        fill="#1a1b27" stroke-opacity="1" /><text x="30" y="40" style="font-size: 22px; fill: #70a5fd;">Vlog</text>
    <g transform="translate(0,40)">
        <g transform="translate(30,20)">
            <g transform="translate(0,0)" width="14" height="14" fill="#bf91f3">
                <path fill-rule="evenodd"
                    d="M5.5 3.5a2 2 0 1 0 0 4 2 2 0 0 0 0-4zM2 5.5a3.5 3.5 0 1 1 5.898 2.549 5.507 5.507 0 0 1 3.034 4.084.75.75 0 1 1-1.482.235 4.001 4.001 0 0 0-7.9 0 .75.75 0 0 1-1.482-.236A5.507 5.507 0 0 1 3.102 8.05 3.49 3.49 0 0 1 2 5.5zM11 4a.75.75 0 1 0 0 1.5 1.5 1.5 0 0 1 .666 2.844.75.75 0 0 0-.416.672v.352a.75.75 0 0 0 .574.73c1.2.289 2.162 1.2 2.522 2.372a.75.75 0 1 0 1.434-.44 5.01 5.01 0 0 0-2.56-3.012A3 3 0 0 0 11 4z" />
            </g>
            <g transform="translate(0,25.2)" width="14" height="14" fill="#bf91f3">
                <path fill-rule="evenodd"
                    d="M8 .25a.75.75 0 0 1 .673.418l1.882 3.815 4.21.612a.75.75 0 0 1 .416 1.279l-3.046 2.97.719 4.192a.75.75 0 0 1-1.088.791L8 12.347l-3.766 1.98a.75.75 0 0 1-1.088-.79l.72-4.194L.818 6.374a.75.75 0 0 1 .416-1.28l4.21-.611L7.327.668A.75.75 0 0 1 8 .25z" />
            </g>
            <g transform="translate(0,50.4)" width="14" height="14" fill="#bf91f3">
                <path fill-rule="evenodd"
                    d="M1.679 7.932c.412-.621 1.242-1.75 2.366-2.717C5.175 4.242 6.527 3.5 8 3.5c1.473 0 2.824.742 3.955 1.715 1.124.967 1.954 2.096 2.366 2.717a.119.119 0 010 .136c-.412.621-1.242 1.75-2.366 2.717C10.825 11.758 9.473 12.5 8 12.5c-1.473 0-2.824-.742-3.955-1.715C2.92 9.818 2.09 8.69 1.679 8.068a.119.119 0 010-.136zM8 2c-1.981 0-3.67.992-4.933 2.078C1.797 5.169.88 6.423.43 7.1a1.619 1.619 0 000 1.798c.45.678 1.367 1.932 2.637 3.024C4.329 13.008 6.019 14 8 14c1.981 0 3.67-.992 4.933-2.078 1.27-1.091 2.187-2.345 2.637-3.023a1.619 1.619 0 000-1.798c-.45-.678-1.367-1.932-2.637-3.023C11.671 2.992 9.981 2 8 2zm0 8a2 2 0 100-4 2 2 0 000 4z" />
            </g>
            <g transform="translate(0,75.6)" width="14" height="14" fill="#bf91f3">
                <path fill-rule="evenodd"
                    d="M2 2.5A2.5 2.5 0 014.5 0h8.75a.75.75 0 01.75.75v12.5a.75.75 0 01-.75.75h-2.5a.75.75 0 110-1.5h1.75v-2h-8a1 1 0 00-.714 1.7.75.75 0 01-1.072 1.05A2.495 2.495 0 012 11.5v-9zm10.5-1V9h-8c-.356 0-.694.074-1 .208V2.5a1 1 0 011-1h8zM5 12.25v3.25a.25.25 0 00.4.2l1.45-1.087a.25.25 0 01.3 0L8.6 15.7a.25.25 0 00.4-.2v-3.25a.25.25 0 00-.25-.25h-3.5a.25.25 0 00-.25.25z" />
            </g><text x="21" y="14" style="fill: #38bdae; font-size: 14px;">Followers:</text><text x="21" y="39.2"
                style="fill: #38bdae; font-size: 14px;">Likes:</text><text x="21" y="64.4"
                style="fill: #38bdae; font-size: 14px;">Views:</text><text x="21" y="89.6"
                style="fill: #38bdae; font-size: 14px;">Creations:</text><text x="100" y="14"
                style="fill: #38bdae; font-size: 14px;">143</text><text x="100" y="39.2"
                style="fill: #38bdae; font-size: 14px;">1.0k</text><text x="100" y="64.4"
                style="fill: #38bdae; font-size: 14px;">53.0k</text><text x="100" y="89.6"
                style="fill: #38bdae; font-size: 14px;">22</text>
        </g>
        <g transform="translate(235,25)">
            <g transform="scale(5)" style="fill: #bf91f3;">
                <path fill-rule="evenodd"
                    d="M0 3.75C0 2.784.784 2 1.75 2h12.5c.966 0 1.75.784 1.75 1.75v8.5A1.75 1.75 0 0114.25 14H1.75A1.75 1.75 0 010 12.25v-8.5zm1.75-.25a.25.25 0 00-.25.25v8.5c0 .138.112.25.25.25h12.5a.25.25 0 00.25-.25v-8.5a.25.25 0 00-.25-.25H1.75zM6.5 5.5v5l4-2.5-4-2.5z" />
            </g>
        </g>
    </g>
</svg>